<?xml version="1.0" encoding="utf-8"?>
<!-- Generator: Adobe Illustrator 15.0.2, SVG Export Plug-In . SVG Version: 6.00 Build 0)  -->
<!DOCTYPE svg PUBLIC "-//W3C//DTD SVG 1.1//EN" "http://www.w3.org/Graphics/SVG/1.1/DTD/svg11.dtd">
<svg version="1.1" id="Ebene_1" xmlns="http://www.w3.org/2000/svg" xmlns:xlink="http://www.w3.org/1999/xlink" x="0px" y="0px"
	 width="200px" height="200px" viewBox="0 0 200 200" enable-background="new 0 0 200 200" xml:space="preserve">
<path id="androduino" d="M153.574,66.162c0-17.208-10.587-32.206-26.203-39.867l8.58-14.917c0,0,0.408-0.793-0.362-1.236
	c-0.771-0.445-1.288,0.313-1.288,0.313l-8.711,15.049c-6.636-2.953-14.094-4.62-21.98-4.62c-7.887,0-15.344,1.667-21.979,4.62
	l-8.712-15.049c0,0-0.486-0.76-1.261-0.316c-0.777,0.443-0.39,1.239-0.39,1.239h0.003l8.579,14.917
	c-15.619,7.661-26.203,22.659-26.203,39.867h49.963H153.574z M127.371,40.271c2.619,0,4.752,2.136,4.752,4.753
	c0,2.618-2.133,4.687-4.752,4.687c-2.617,0-4.752-2.068-4.752-4.687C122.619,42.406,124.754,40.271,127.371,40.271z M79.85,49.71
	c-2.618,0-4.753-2.068-4.753-4.687c0-2.617,2.135-4.753,4.753-4.753s4.752,2.136,4.752,4.753
	C84.602,47.642,82.467,49.71,79.85,49.71z M36.236,81.16v46.437c0,6.774-4.978,12.266-11.118,12.266
	c-6.14,0-11.118-5.491-11.118-12.266V81.16c0-6.773,4.978-12.266,11.118-12.266C31.258,68.895,36.236,74.387,36.236,81.16z
	 M185.586,81.16v46.437c0,6.774-4.979,12.266-11.118,12.266c-6.141,0-11.12-5.491-11.12-12.266V81.16
	c0-6.773,4.979-12.266,11.12-12.266C180.607,68.895,185.586,74.387,185.586,81.16z M153.567,72.545l-2.173-2.013H53.709v13.832
	H41.741v18.472h11.968v29.878h-3.92v14.267h3.92v4.206h20.494v26.684c0,6.796,4.949,12.267,11.108,12.267
	s11.108-5.471,11.108-12.267v-26.684h17.853v26.684c0,6.796,4.949,12.267,11.108,12.267s11.178-5.471,11.178-12.267v-26.684h17.011
	v-2.741l3.771-3.889V93.691l-3.772-3.589V72.545z M77.027,71.47c1.376,0,2.493,1.116,2.493,2.491c0,1.378-1.117,2.493-2.493,2.493
	c-1.375,0-2.492-1.115-2.492-2.493C74.535,72.586,75.652,71.47,77.027,71.47z M156.309,139.439c0.002,1.286-1.042,2.329-2.331,2.329
	c-1.287,0-2.331-1.043-2.331-2.329c0-1.29,1.044-2.332,2.331-2.332C155.267,137.107,156.309,138.149,156.309,139.439z
	 M153.705,95.496c0.883,0,1.599,0.718,1.599,1.602s-0.716,1.599-1.599,1.599c-0.885,0-1.602-0.715-1.602-1.599
	C152.104,96.215,152.82,95.496,153.705,95.496z"/>
</svg>
