<?xml version="1.0" encoding="utf-8"?>
<!-- Generator: Adobe Illustrator 15.0.2, SVG Export Plug-In . SVG Version: 6.00 Build 0)  -->
<!DOCTYPE svg PUBLIC "-//W3C//DTD SVG 1.1//EN" "http://www.w3.org/Graphics/SVG/1.1/DTD/svg11.dtd">
<svg version="1.1" id="Ebene_1" xmlns="http://www.w3.org/2000/svg" xmlns:xlink="http://www.w3.org/1999/xlink" x="0px" y="0px"
	 width="200px" height="200px" viewBox="0 0 200 200" enable-background="new 0 0 200 200" xml:space="preserve">
<path id="cat" d="M164.064,134.648c15.641-11.246,25.277-26.592,25.277-43.512c0-9.13-2.828-17.795-7.867-25.611l3.896-36.828
	l-30.129,13.388c-15.207-8.377-34.387-13.388-55.253-13.388c-21.025,0-40.341,5.088-55.603,13.58l-30.563-13.58l4.009,37.867
	c-4.625,7.542-7.195,15.846-7.195,24.572c0,16.92,9.636,32.266,25.277,43.512c-11.389,2.662-21.1,7.552-26.065,13.18
	c0.749,0.767,1.506,1.527,2.284,2.273c4.614-5.344,14.948-10.531,27.469-12.947c1.843,1.182,3.756,2.308,5.735,3.378
	c-10.678,3.304-19.959,9.333-25.372,16.412c0.84,0.665,1.694,1.317,2.557,1.96c5.528-7.203,15.718-13.354,27.111-16.186
	c2.019,0.965,4.097,1.873,6.232,2.721c-8.249,6.067-14.386,14.89-16.729,23.793c0.99,0.508,1.987,1.007,2.994,1.49
	c2.191-8.983,8.762-18.122,17.44-23.889c12.139,4.311,25.873,6.742,40.42,6.742c14.549,0,28.283-2.432,40.421-6.742
	c8.678,5.767,15.248,14.905,17.439,23.889c1.01-0.483,2.004-0.982,2.994-1.49c-2.342-8.903-8.48-17.726-16.729-23.793
	c2.135-0.848,4.213-1.756,6.232-2.721c11.391,2.831,21.581,8.982,27.109,16.186c0.863-0.643,1.718-1.295,2.557-1.96
	c-5.413-7.079-14.693-13.108-25.371-16.412c1.979-1.07,3.893-2.196,5.734-3.378c12.522,2.416,22.855,7.604,27.471,12.947
	c0.775-0.746,1.535-1.507,2.283-2.273C185.164,142.2,175.455,137.311,164.064,134.648z M79.581,120.117
	c-3.551,0-6.429-2.879-6.429-6.43s2.878-6.428,6.429-6.428c3.55,0,6.429,2.877,6.429,6.428S83.13,120.117,79.581,120.117z
	 M99.536,139.389c-3.63,0-6.574-1.748-6.574-3.909c0-2.155,2.944-3.903,6.574-3.903c3.63,0,6.575,1.748,6.575,3.903
	C106.111,137.641,103.166,139.389,99.536,139.389z M120.398,120.119c-3.552,0-6.43-2.88-6.43-6.431c0-3.552,2.878-6.429,6.43-6.429
	c3.55,0,6.43,2.877,6.43,6.429C126.828,117.239,123.948,120.119,120.398,120.119z"/>
</svg>
