<?xml version="1.0" encoding="utf-8"?>
<!-- Generator: Adobe Illustrator 15.0.2, SVG Export Plug-In . SVG Version: 6.00 Build 0)  -->
<!DOCTYPE svg PUBLIC "-//W3C//DTD SVG 1.1//EN" "http://www.w3.org/Graphics/SVG/1.1/DTD/svg11.dtd">
<svg version="1.1" id="Ebene_1" xmlns="http://www.w3.org/2000/svg" xmlns:xlink="http://www.w3.org/1999/xlink" x="0px" y="0px"
	 width="200px" height="200px" viewBox="0 0 200 200" enable-background="new 0 0 200 200" xml:space="preserve">
<path id="businessCat" d="M131.819,175.596l1.329,2.138c-7.213,4.479-7.494,4.655-12.51,4.655h-40.5
	c-5.016,0-5.297-0.176-12.51-4.655l1.327-2.138c6.886,4.275,6.886,4.275,11.183,4.275h40.5
	C124.936,179.871,124.936,179.871,131.819,175.596z M117.842,183.513c-1.775,0-3.211,1.438-3.211,3.212s1.436,3.211,3.211,3.211
	c1.773,0,3.211-1.438,3.211-3.211S119.615,183.513,117.842,183.513z M90.192,170.84c-2.123,0-3.844,1.722-3.844,3.846v1.42h7.689
	v-1.42C94.037,172.562,92.315,170.84,90.192,170.84z M82.315,183.513c-1.773,0-3.211,1.438-3.211,3.212s1.438,3.211,3.211,3.211
	c1.774,0,3.211-1.438,3.211-3.211S84.09,183.513,82.315,183.513z M147.366,129.752c0-15.764-8.181-29.664-20.631-37.896v64.832
	H74.042V91.857c-12.451,8.232-20.632,22.131-20.632,37.895c0,15.236,7.646,28.73,19.401,37.049h55.156
	c4.361-3.087,8.156-6.887,11.206-11.225v-20.734h7.901C147.264,133.17,147.366,131.473,147.366,129.752z M155.815,83.402
	c-0.46,0.472-0.927,0.939-1.404,1.399c-2.838-3.287-9.192-6.477-16.892-7.961c-1.133,0.726-2.311,1.417-3.525,2.078
	c6.564,2.03,12.271,5.738,15.6,10.091c-0.516,0.409-1.041,0.81-1.571,1.205c-3.4-4.429-9.665-8.212-16.669-9.953
	c-1.242,0.593-2.521,1.152-3.832,1.675c5.07,3.729,8.846,9.154,10.285,14.628c-0.607,0.312-1.221,0.619-1.84,0.916
	c-1.348-5.523-5.388-11.142-10.725-14.688c-7.463,2.651-15.908,4.146-24.854,4.146s-17.39-1.495-24.854-4.146
	c-5.337,3.546-9.376,9.165-10.724,14.688c-0.62-0.297-1.232-0.604-1.841-0.916c1.44-5.475,5.214-10.899,10.286-14.628
	c-1.312-0.522-2.59-1.082-3.832-1.675c-7.005,1.741-13.271,5.524-16.669,9.953c-0.531-0.395-1.057-0.796-1.572-1.205
	c3.328-4.353,9.035-8.061,15.6-10.091c-1.216-0.66-2.393-1.352-3.526-2.078c-7.699,1.484-14.054,4.675-16.891,7.961
	c-0.478-0.46-0.944-0.927-1.404-1.399c3.053-3.46,9.025-6.467,16.028-8.104c-9.618-6.915-15.543-16.35-15.543-26.754
	c0-5.365,1.58-10.471,4.423-15.109L47.406,10.15l18.793,8.352c9.384-5.222,21.261-8.352,34.189-8.352
	c12.83,0,24.623,3.082,33.974,8.232l18.526-8.232l-2.396,22.646c3.098,4.806,4.838,10.133,4.838,15.747
	c0,10.404-5.926,19.839-15.543,26.754C146.791,76.936,152.761,79.942,155.815,83.402z M91.793,62.411
	c0-2.183-1.771-3.954-3.954-3.954c-2.183,0-3.954,1.771-3.954,3.954c0,2.182,1.771,3.953,3.954,3.953
	C90.022,66.364,91.793,64.593,91.793,62.411z M104.152,75.81c0-1.326-1.811-2.401-4.042-2.401c-2.232,0-4.042,1.076-4.042,2.401
	c0,1.329,1.81,2.403,4.042,2.403C102.342,78.213,104.152,77.138,104.152,75.81z M116.891,62.412c0-2.184-1.77-3.954-3.953-3.954
	s-3.953,1.77-3.953,3.954c0,2.183,1.77,3.952,3.953,3.952S116.891,64.594,116.891,62.412z M150.891,136.139h-7.15
	c-1.795,0-3.25,1.252-3.25,2.796v23.856c0,1.545,1.455,2.795,3.25,2.795h7.15c1.795,0,3.25-1.25,3.25-2.795v-23.856
	C154.141,137.391,152.686,136.139,150.891,136.139z M100.389,91.416L83.601,129.75l16.788,23.7l16.788-23.741L100.389,91.416z
	 M110.585,170.84c-2.123,0-3.845,1.722-3.845,3.846v1.42h7.688v-1.42C114.429,172.562,112.708,170.84,110.585,170.84z"/>
</svg>
