<?xml version="1.0" encoding="utf-8"?>
<!-- Generator: Adobe Illustrator 15.0.2, SVG Export Plug-In . SVG Version: 6.00 Build 0)  -->
<!DOCTYPE svg PUBLIC "-//W3C//DTD SVG 1.1//EN" "http://www.w3.org/Graphics/SVG/1.1/DTD/svg11.dtd">
<svg version="1.1" id="Ebene_1" xmlns="http://www.w3.org/2000/svg" xmlns:xlink="http://www.w3.org/1999/xlink" x="0px" y="0px"
	 width="200px" height="200px" viewBox="0 0 200 200" enable-background="new 0 0 200 200" xml:space="preserve">
<path id="catboard" d="M44.362,145.184c-13.775,0-14.548-0.482-34.362-12.785l3.648-5.877
	c18.912,11.744,18.912,11.744,30.714,11.744h111.251c11.803,0,11.803,0,30.711-11.741l3.649,5.874
	c-19.812,12.303-20.585,12.785-34.36,12.785H44.362z M59.748,100.688c-9.823-7.063-15.875-16.699-15.875-27.325
	c0-5.48,1.614-10.695,4.519-15.431L45.875,34.15l19.194,8.528c9.584-5.332,21.714-8.528,34.918-8.528
	c13.105,0,25.149,3.146,34.699,8.408l18.922-8.408l-2.447,23.127c3.164,4.909,4.941,10.351,4.941,16.085
	c0,10.625-6.053,20.262-15.876,27.325c7.153,1.672,13.251,4.742,16.37,8.277c-0.469,0.481-0.947,0.959-1.434,1.428
	c-2.899-3.355-9.388-6.614-17.252-8.131c-1.157,0.741-2.359,1.449-3.602,2.121c6.706,2.075,12.534,5.861,15.934,10.307
	c-0.527,0.418-1.064,0.827-1.605,1.23c-3.472-4.523-9.872-8.386-17.025-10.164c-1.268,0.605-2.574,1.176-3.914,1.709
	c5.181,3.81,9.035,9.35,10.506,14.941c-0.621,0.318-1.246,0.631-1.881,0.936c-1.376-5.641-5.501-11.381-10.951-15.002
	c-7.623,2.707-16.248,4.234-25.385,4.234c-9.136,0-17.76-1.527-25.384-4.234c-5.45,3.621-9.576,9.361-10.952,15.002
	c-0.633-0.305-1.26-0.617-1.88-0.936c1.471-5.592,5.326-11.132,10.506-14.941c-1.341-0.533-2.646-1.104-3.915-1.709
	c-7.153,1.778-13.553,5.641-17.025,10.164c-0.542-0.403-1.078-0.813-1.605-1.23c3.399-4.445,9.228-8.231,15.933-10.307
	c-1.243-0.672-2.444-1.38-3.602-2.121c-7.863,1.517-14.353,4.775-17.251,8.131c-0.488-0.469-0.964-0.946-1.434-1.428
	C46.497,105.43,52.595,102.359,59.748,100.688z M108.766,87.525c0,2.23,1.809,4.038,4.038,4.038s4.037-1.808,4.037-4.038
	c0-2.23-1.808-4.038-4.037-4.038S108.766,85.294,108.766,87.525z M95.573,101.209c0,1.357,1.849,2.455,4.129,2.455
	c2.28,0,4.128-1.098,4.128-2.455c0-1.354-1.848-2.451-4.128-2.451C97.422,98.758,95.573,99.855,95.573,101.209z M83.133,87.524
	c0,2.23,1.807,4.038,4.038,4.038c2.229,0,4.037-1.808,4.037-4.038s-1.808-4.037-4.037-4.037
	C84.94,83.487,83.133,85.294,83.133,87.524z M147.928,148.272c-4.873,0-8.82,3.947-8.82,8.821c0,4.871,3.947,8.82,8.82,8.82
	c4.872,0,8.822-3.949,8.822-8.82C156.75,152.22,152.8,148.272,147.928,148.272z M50.343,148.272c-4.873,0-8.822,3.947-8.822,8.821
	c0,4.871,3.949,8.82,8.822,8.82c4.873,0,8.821-3.949,8.821-8.82C59.164,152.22,55.215,148.272,50.343,148.272z"/>
</svg>
