<?xml version="1.0" encoding="utf-8"?>
<!-- Generator: Adobe Illustrator 15.0.2, SVG Export Plug-In . SVG Version: 6.00 Build 0)  -->
<!DOCTYPE svg PUBLIC "-//W3C//DTD SVG 1.1//EN" "http://www.w3.org/Graphics/SVG/1.1/DTD/svg11.dtd">
<svg version="1.1" id="Ebene_1" xmlns="http://www.w3.org/2000/svg" xmlns:xlink="http://www.w3.org/1999/xlink" x="0px" y="0px"
	 width="200px" height="200px" viewBox="0 0 200 200" enable-background="new 0 0 200 200" xml:space="preserve">
<path d="M111.904,118.216c0.581,0.892,0.758,1.384,0.488,1.952c-4.068,5.248-8.229,6.042-18.055,5.855
	c-0.849-0.563-2.185-0.826-2.928-1.464C101.902,125.119,107.77,125.233,111.904,118.216z M64.57,173.847c0-0.163,0-0.324,0-0.487
	c-1.464-1.024-2.051-2.246-3.903-2.93C61.63,171.887,62.76,173.208,64.57,173.847z M110.441,136.76c1.139,0,2.277,0,3.416,0
	c0-0.163,0-0.325,0-0.488c-1.279-0.525-2.065-0.861-3.904-0.976C110.116,135.783,110.277,136.271,110.441,136.76z M95.801,173.359
	c0.324,0,0.651,0,0.977,0c0-0.164,0-0.326,0-0.488c-3.022-1.664-5.138-4.207-8.785-5.367
	C89.96,170.391,93.224,171.119,95.801,173.359z M104.586,151.399c-0.693-0.431-1.598-0.478-2.929-0.489
	C102.35,151.341,103.254,151.39,104.586,151.399z M160.704,89.912c0.171,1.143-0.982,1.818-0.976,4.393
	c-1.139,0.163-2.277,0.325-3.416,0.487c0.273,4.077,1.781,6.867,2.439,10.247c0.699,3.596-3.045,14.229-4.393,17.08
	c-1.385,2.932-5.229,3.28-6.344,6.832c-0.162,1.627-0.324,3.254-0.487,4.881c-0.612,2.06-2.409,4.352-2.929,6.344
	c-0.951,3.657,1.719,5.635,0.977,8.783c-1.023,4.348-4.383,4.75-6.344,7.32c-0.65,1.951-1.301,3.904-1.952,5.856
	c-0.714,1.106-9.698,12.801-10.248,13.175c-3.577,0.977-7.157,1.952-10.735,2.928c-1.672,2.801-3.639,9.462-6.831,10.736
	c-1.526,1.277-4.911,1.069-7.809,0.977c0.011-4.721,1.644-5.865,1.952-10.249c-1.248-1.052-2.47-3.085-3.416-4.392
	c0.325,0,0.65,0,0.976,0c1.569,1.432,15.839,1.468,16.592,0.977c5.766-1.926,11.206-8.29,13.663-14.151c-0.487,0-0.975,0-1.463,0
	c-1.857,1.046-16.764-2.141-20.983-2.44c0-0.325,0-0.65,0-0.977c10.181,0.233,15.797-0.857,21.472-4.392c0-0.163,0-0.325,0-0.487
	c-1.43-0.096-14.879-1.75-15.129-1.952c2.879-0.239,4.727-1.425,6.832-1.952c3.09,0.162,6.182,0.324,9.271,0.488
	c-0.192-0.977-0.164-0.965-0.487-1.465c-8.118-6.332-24.931-4.526-34.647-0.488c0-0.324,0-0.65,0-0.975
	c0.65-0.651,1.302-1.303,1.953-1.953c1.936-1.286,5.411-1.829,8.295-1.951c-0.039-1.343-0.358-0.621,0.976-0.977
	c0,0,5.254,0.835,6.833,0.488c0.867-0.19,1.772-1.406,3.415-0.976c0.748,0.196,1.445,1.287,3.416,0.976
	c0.612-0.097,2.519-0.811,3.903-0.488c3.742,1.463,7.483,2.93,11.225,4.393c0-0.488,0-0.977,0-1.465
	c-0.316-0.492-0.283-0.502-0.488-1.464c0.975-0.193,0.965-0.165,1.464-0.487c2.746-3.119,4.763-9.195,5.856-13.664
	c-0.163-0.163-0.324-0.325-0.488-0.488c-12.191-0.734-15.377-6.424-19.031-15.615c-1.361,0.043-0.965-0.127-0.977-2.44
	c-0.163-0.163-0.325-0.325-0.488-0.487c-1.836-0.807-2.068-0.75-4.392-0.488c0.069-1.526,0.219-0.742,0-1.952
	c-0.325,0-0.65,0-0.977,0c-0.721,3.484-2.136,6.843-3.903,9.272c-0.162,0-0.325,0-0.488,0c-0.162-0.977-0.324-1.953-0.488-2.929
	c0.326,0,0.651,0,0.977,0c-0.162,0.325-0.325,0.651-0.488,0.976c0.326,0,0.651,0,0.977,0c0.813-2.765,1.627-5.53,2.439-8.295
	c-4.172-0.053-6.584,1.104-9.271,2.439c-0.039,1.529,0.709,0.491-0.488,1.464c-1.56,1.147-4.188,1.438-6.832,1.464
	c0.163-0.649,0.325-1.301,0.488-1.951c-2.114,0-4.229,0-6.343,0c-3.326-2.965-7.045-1.707-10.736-0.977
	c-0.898-1.117-2.079-1.764-3.416-2.439c0,0.976,0,1.952,0,2.928c-1.839,2.941,0.492,7.801,1.464,9.76c-0.325,0-0.652,0-0.976,0
	c0-0.324,0-0.651,0-0.976c-2.843-2.369-2.565-7.861-2.44-13.177c-1.691-1.21-8.421-8.93-9.76-7.808
	c-3.023,2.264-3.836,7.812-5.368,10.737c-0.338-0.459-0.178-0.191-0.487-0.977c-4.152-3.836-1.823-15.224-6.344-18.544
	c0,0.325,0,0.651,0,0.976c-5.735,7.005,0.654,29.516,4.392,33.184c1.489,1.46,3.264,0.949,4.392,2.928
	c0.737,1.509-0.154,4.997,0,7.809c0.669,12.217,0.645,15.449-5.856,21.959c-1.077,1.078-6.058,6.141-4.879,7.319
	c0.771,1.157,1.394,1.45,1.952,2.929c-0.163,0-0.326,0-0.488,0c-1.424-1.726-3.562-2.531-4.879-4.392
	c1.115-0.762,1.42-1.017,1.951-2.44c0.887-0.975-1.897-4.992-3.904-5.368c-0.994,1.35-1.784,1.672-3.902,1.952
	c-1.987-3.051-5.976-8.126-10.737-8.296c-0.134-3.441,0.033-6.44,1.465-8.296c4.369-3.815,8.588-5.054,11.711-10.248
	c-1.067-0.887-1.172-1.152-1.463-2.928c1.528-1.023,1.833-1.34,1.951-3.903c-3.128-4.747-3.924-10.794-3.904-18.544
	c0.813-0.813,1.627-1.627,2.441-2.44c-3.65-2.076-3.287-4.226-2.929-9.271c7.2-4.961,3.138-9.343,3.905-18.056
	c0.163-2.44,0.325-4.88,0.488-7.32c-0.483-1.916-2.342-4.426-1.463-7.808c2.375-9.143,12.829-12.464,13.174-22.936
	c2.064-0.466,9.366-5.466,10.249-6.832c1.147-1.773,0.486-3.531,1.952-4.88c2.76-1.526,8.945-0.699,11.712-1.952
	c1.626-1.789,3.253-3.579,4.88-5.367c3.741-1.79,7.483-3.579,11.224-5.368c3.817-0.997,5.349,2.586,9.76,1.464
	c3.048-0.776,6.917-4.462,11.712-2.928c2.521,0.807,17.164,7.967,18.543,9.759c0.65,2.115,1.303,4.229,1.953,6.344
	c0.58,1.268,5.051,3.383,3.416,4.88c0.976,0.325,1.951,0.65,2.927,0.976c0.163,0.976,0.325,1.952,0.488,2.928
	c3.073,2.36,7.446,2.336,9.761,5.368c0.975,2.115,1.951,4.23,2.928,6.344c0,2.44,0,4.88,0,7.32c1.301,1.627,2.603,3.254,3.903,4.88
	c2.417,6.779-3.104,23.839-4.392,28.304C159.322,88.877,160.612,89.296,160.704,89.912z M84.089,98.696c-0.813,0-1.627,0-2.44,0
	c0,0.325,0,0.651,0,0.976c-0.944,1.251-1.311,2.814-1.463,4.88c0.813,0.324,1.626,0.65,2.439,0.975
	C83.114,103.251,83.602,100.973,84.089,98.696z M99.705,100.16c-0.325,0-0.651,0-0.976,0c-0.163,0.488-0.325,0.976-0.487,1.464
	c0.324,0,0.65,0,0.976,0c0-0.163,0-0.325,0-0.488C99.556,100.678,99.397,100.946,99.705,100.16z M125.568,103.089
	c0.762-0.681,0.52-0.333,0.977-1.465c0.163-0.163,0.325-0.325,0.487-0.488c-0.162,0-0.324,0-0.487,0
	c-1.941,1.612-7.436-0.57-10.736-0.976c0,0.326,0,0.651,0,0.976c1.672,1.218,2.391,3.021,2.929,5.368
	c-1.343-0.039-0.622-0.357-0.977,0.977c1.349,0.861,3.304,2.232,5.368,0.976c-1.465-0.163-2.929-0.325-4.392-0.487
	c0-0.488,0-0.977,0-1.465c0.976,0,1.951,0,2.927,0c0-0.813,0-1.627,0-2.439c0.488-0.163,0.977-0.326,1.465-0.488
	C124.455,102.643,125.336,103.346,125.568,103.089z M125.568,99.184c-1.463,0-2.928,0-4.392,0
	C122.193,99.856,124.553,99.845,125.568,99.184z M145.089,126.023c-0.489,0-0.976,0-1.464,0c-1.488,0.844-4.392,0.581-5.855,1.465
	c1.951,0.324,3.903,0.65,5.855,0.976c0.482-0.931,0.699-1.321,1.464-1.952C145.089,126.35,145.089,126.187,145.089,126.023z
	 M148.504,116.752c-0.324,0-0.65,0-0.976,0c-2.625,1.518-9.784-0.237-13.176-0.488c-0.487-0.488-0.976-0.977-1.464-1.464
	c0.163-0.487,0.324-0.976,0.488-1.464c0.162-0.162,0.324-0.325,0.488-0.488l0.975-3.415c-1.723-0.474-2.486-1.21-3.903-1.952
	c0.163,0.488,0.325,0.976,0.487,1.465c-1.788,0.487-3.578,0.975-5.367,1.463c0,0.324,0,0.65,0,0.976
	c1.139,0.325,2.277,0.65,3.416,0.976c-0.549,1.559-0.725,2.292-1.465,3.416c-0.324-0.324-0.649-0.65-0.976-0.976
	c0,0.325,0,0.651,0,0.976c4.933,3.054,0.163,3.83,2.44,7.809c2.927,5.111,16.016,2.135,17.567-1.952
	C148.129,120.404,148.432,119.076,148.504,116.752z M148.992,79.665c-0.648-2.608-2.374-5.379-2.439-7.32
	c-2.623-0.915-3.811-3.644-6.832-4.392c-6.317-1.564-17.067,5.418-21.473,7.32c0-0.324,0-0.651,0-0.976
	c0.326-0.325,0.652-0.651,0.977-0.976c-0.813,0-1.627,0-2.44,0c-0.324,0.325-0.65,0.651-0.976,0.976c0-0.325,0-0.651,0-0.976
	c-1.13-1.628-0.742-1.919,0-3.416c-0.976,0-1.951,0-2.928,0c-0.686,0.626-1.549,1.025-2.439,1.464c0-0.488,0-0.977,0-1.464
	c-1.14,0.163-2.277,0.325-3.416,0.488c-0.65,1.139-1.302,2.277-1.953,3.416c-6.284-2.686-8.733,4.92-12.687,7.808
	c-0.384-4.046-1.289-4.361-0.488-8.296c-0.162,0-0.324,0-0.488,0c0,0.163,0,0.325,0,0.488c-2.065,1.197-3.202,2.27-3.904,4.88
	c-0.163,0-0.325,0-0.488,0c0-0.976,0-1.951,0-2.927c0.345-0.561,0.361-0.845,0.488-1.953c-0.325,0-0.651,0-0.976,0
	c0,0.163,0,0.326,0,0.488c-0.488,1.301-0.976,2.603-1.464,3.904c-0.339-0.459-0.179-0.19-0.488-0.976
	c-0.324-0.488-0.65-0.977-0.976-1.464c-0.163,0.163-0.325,0.324-0.488,0.487c-2.101,1.38-3.239,2.993-3.904,5.856
	c-1.9-1.62-2.508-1.766-5.855-1.952c-1.331,3.229-6.019,9.612-4.88,12.688c0.939,5.674,6.061,6.44,8.784,10.248
	c0.164,0,0.325,0,0.488,0c1.126-3.957,3.001-6.885,8.295-6.833c3.561-1.947,6.525,1.872,11.224,0.976
	c7.772-1.482,18.526-1.05,25.864,0.488c7.319,0.163,14.641,0.325,21.96,0.488c0.166-1.751-0.706-0.948,0.976-1.464
	c1.08,0.159,1.568,0.446,2.439-0.976C145.838,90.969,150.354,85.146,148.992,79.665z M154.848,101.624
	c-0.488-0.163-0.977-0.325-1.463-0.488c0.064,2.065,0.385,2.614,0.975,3.903c0.164,0,0.325,0,0.488,0
	C154.848,103.902,154.848,102.763,154.848,101.624z M125.08,122.119c-0.436-1.604-0.85-2.512-1.951-3.415
	c0.201,1.413,0.343,2.072,0.977,2.928c0,0.163,0,0.325,0,0.487C124.43,122.119,124.756,122.119,125.08,122.119z M117.272,137.736
	c3.071,2.748,12.327,3.484,15.616,0.487c0.318-0.897-2.826-9.018-3.903-10.735c-0.116-2.98-1.165-4.14-3.417-4.88
	c0.752,3.249,1.76,7.78,3.904,9.759c-0.309,0.785-0.148,0.518-0.487,0.977c-2.878,1.193-7.704,1.926-10.737,4.393
	C117.924,137.736,117.598,137.736,117.272,137.736z M108.489,150.91c-0.692-0.429-1.598-0.477-2.929-0.486
	C106.254,150.854,107.158,150.901,108.489,150.91z"/>
</svg>
