<?xml version="1.0" encoding="utf-8"?>
<!-- Generator: Adobe Illustrator 15.0.2, SVG Export Plug-In . SVG Version: 6.00 Build 0)  -->
<!DOCTYPE svg PUBLIC "-//W3C//DTD SVG 1.1//EN" "http://www.w3.org/Graphics/SVG/1.1/DTD/svg11.dtd">
<svg version="1.1" id="Ebene_1" xmlns="http://www.w3.org/2000/svg" xmlns:xlink="http://www.w3.org/1999/xlink" x="0px" y="0px"
	 width="200px" height="200px" viewBox="0 0 200 200" enable-background="new 0 0 200 200" xml:space="preserve">
<path id="epnGuenther" fill-rule="evenodd" clip-rule="evenodd" d="M76.186,25.146l5.063-13.167l10.01,9.947L98.798,10l7.875,11.711
	l9.726-10.233l5.438,13.021l11.53-8.134l2.796,13.828l12.893-5.723l0.045,14.106l13.766-3.102l-2.709,13.852l14.104-0.36
	l-5.357,13.054l13.902,2.403l-7.806,11.757l13.17,5.071l-9.946,10.003l11.928,7.541l-11.707,7.873l10.226,9.724l-13.021,5.44
	l8.135,11.533l-13.831,2.799l5.729,12.889l-14.11,0.047l3.103,13.764l-13.852-2.709l0.356,14.1l-13.05-5.355l-2.404,13.903
	l-11.757-7.807l-5.067,13.169l-10.01-9.944l-7.541,11.929l-7.871-11.711l-9.724,10.226l-5.44-13.017l-11.53,8.133l-2.797-13.833
	l-12.895,5.735l-0.042-14.114l-13.769,3.104l2.711-13.851l-14.105,0.354l5.361-13.051l-13.904-2.402l7.803-11.758l-13.17-5.063
	l9.946-10.008L10,101.354l11.709-7.876l-10.228-9.726l13.021-5.435l-8.135-11.532L30.2,63.986l-5.729-12.891l14.111-0.046
	l-3.099-13.764l13.844,2.706l-0.353-14.104l13.05,5.356l2.405-13.896L76.186,25.146z M147.188,95.248
	c-0.074-0.506-1.127-0.842-0.799-1.995c1.053-3.639,5.555-17.556,3.582-23.08c-1.061-1.328-2.123-2.656-3.182-3.98
	c0-1.992,0-3.978,0-5.974c-0.797-1.721-1.594-3.446-2.389-5.174c-1.887-2.471-5.453-2.457-7.96-4.377
	c-0.13-0.796-0.267-1.589-0.396-2.389c-0.796-0.264-1.596-0.532-2.393-0.796c1.335-1.221-2.31-2.942-2.784-3.977
	c-0.53-1.729-1.061-3.457-1.59-5.177c-1.13-1.464-13.072-7.302-15.129-7.959c-3.91-1.253-7.063,1.753-9.551,2.389
	c-3.598,0.914-4.844-2.011-7.96-1.196c-3.047,1.459-6.102,2.917-9.152,4.379c-1.331,1.46-2.654,2.921-3.981,4.378
	c-2.256,1.022-7.302,0.343-9.553,1.596c-1.194,1.093-0.657,2.524-1.592,3.975c-0.721,1.113-6.675,5.19-8.357,5.569
	C63.718,60,55.188,62.714,53.252,70.173c-0.714,2.761,0.8,4.807,1.194,6.366c-0.133,1.986-0.265,3.985-0.397,5.971
	c-0.627,7.108,2.687,10.682-3.185,14.727c-0.289,4.117-0.589,5.871,2.389,7.566c-0.662,0.658-1.326,1.324-1.99,1.992
	c-0.017,6.313,0.633,11.247,3.184,15.117c-0.098,2.096-0.346,2.35-1.592,3.186c0.239,1.453,0.323,1.67,1.194,2.389
	c-2.549,4.238-5.989,5.244-9.555,8.357c-1.167,1.515-1.305,3.96-1.192,6.764c3.883,0.143,7.139,4.277,8.758,6.769
	c1.726-0.228,2.373-0.491,3.183-1.592c1.636,0.307,3.91,3.585,3.187,4.378c-0.438,1.16-0.684,1.369-1.592,1.992
	c1.073,1.52,2.819,2.174,3.979,3.584c0.132,0,0.264,0,0.396,0c-0.454-1.207-0.959-1.442-1.592-2.393
	c-0.959-0.96,3.103-5.087,3.979-5.97c5.304-5.31,5.324-7.946,4.779-17.909c-0.126-2.293,0.6-5.137,0-6.369
	c-0.923-1.615-2.369-1.192-3.579-2.389c-3.055-2.992-8.264-21.355-3.586-27.064c0-0.261,0-0.533,0-0.797
	c3.687,2.709,1.788,11.998,5.173,15.125c0.251,0.635,0.125,0.421,0.4,0.797c1.248-2.383,1.912-6.91,4.379-8.76
	c1.091-0.906,6.579,5.385,7.958,6.371c-0.102,4.334-0.33,8.811,1.993,10.747c0,0.263,0,0.528,0,0.8c0.262,0,0.526,0,0.792,0
	c-0.792-1.607-2.69-5.566-1.192-7.963c0-0.799,0-1.592,0-2.393c1.091,0.555,2.053,1.083,2.787,1.992
	c3.011-0.593,6.041-1.62,8.754,0.797c1.725,0,3.453,0,5.177,0c-0.134,0.525-0.267,1.061-0.4,1.592
	c2.156-0.025,4.301-0.259,5.572-1.195c0.975-0.793,0.369,0.053,0.397-1.193c2.188-1.088,4.159-2.038,7.563-1.992
	c-0.662,2.261-1.328,4.514-1.992,6.77c-0.264,0-0.529,0-0.794,0c0.136-0.271,0.265-0.535,0.397-0.799c-0.262,0-0.532,0-0.796,0
	c0.132,0.799,0.264,1.592,0.398,2.396c0.136,0,0.265,0,0.397,0c1.442-1.99,2.594-4.731,3.186-7.566c0.266,0,0.531,0,0.797,0
	c0.178,0.982,0.056,0.343,0,1.592c1.894-0.214,2.082-0.261,3.58,0.396c0.135,0.133,0.264,0.269,0.396,0.396
	c0.013,1.887-0.313,2.027,0.798,1.992c2.983,7.498,5.577,12.141,15.524,12.736c0.133,0.131,0.265,0.261,0.396,0.396
	c-0.893,3.647-2.537,8.604-4.773,11.15c-0.41,0.26-0.402,0.238-1.201,0.396c0.173,0.781,0.143,0.791,0.401,1.191
	c0,0.4,0,0.794,0,1.197c-3.05-1.197-6.104-2.389-9.153-3.582c-1.13-0.271-2.686,0.314-3.187,0.4
	c-1.606,0.25-2.174-0.643-2.782-0.804c-1.342-0.351-2.08,0.642-2.787,0.804c-1.289,0.274-5.574-0.4-5.574-0.4
	c-1.087,0.286-0.828-0.303-0.796,0.797c-2.353,0.096-5.186,0.539-6.767,1.588c-0.528,0.537-1.06,1.063-1.592,1.589
	c0,0.265,0,0.532,0,0.804c7.926-3.295,21.635-4.773,28.26,0.396c0.265,0.403,0.24,0.396,0.398,1.195
	c-2.52-0.142-5.041-0.271-7.563-0.406c-1.719,0.436-3.223,1.399-5.573,1.592c0.206,0.172,11.174,1.521,12.34,1.593
	c0,0.136,0,0.271,0,0.4c-4.628,2.886-9.208,3.771-17.512,3.585c0,0.264,0,0.527,0,0.793c3.44,0.248,15.598,2.848,17.117,1.992
	c0.395,0,0.792,0,1.19,0c-2.005,4.784-6.443,9.972-11.143,11.546c-0.613,0.392-12.255,0.364-13.536-0.8c-0.267,0-0.532,0-0.793,0
	c0.77,1.061,1.767,2.725,2.783,3.585c-0.246,3.577-1.582,4.513-1.588,8.354c2.361,0.078,5.119,0.246,6.367-0.792
	c2.604-1.044,4.208-6.47,5.572-8.759c2.916-0.797,5.838-1.589,8.757-2.389c0.448-0.307,7.776-9.844,8.36-10.746
	c0.529-1.59,1.057-3.185,1.589-4.778c1.599-2.097,4.341-2.421,5.172-5.966c0.608-2.57-1.571-4.182-0.792-7.17
	c0.422-1.625,1.884-3.488,2.388-5.166c0.132-1.329,0.265-2.656,0.395-3.984c0.91-2.9,4.05-3.182,5.179-5.574
	c1.1-2.324,4.148-11,3.579-13.928c-0.536-2.76-1.765-5.038-1.989-8.362c0.93-0.132,1.859-0.268,2.785-0.396
	C146.386,96.727,147.326,96.184,147.188,95.248z M106.191,78.931c-0.93,0.132-1.861,0.266-2.787,0.394
	c-0.531,0.928-1.063,1.856-1.594,2.789c-5.124-2.189-7.123,4.017-10.346,6.367c-0.315-3.3-1.053-3.557-0.399-6.763
	c-0.132,0-0.264,0-0.399,0c0,0.136,0,0.264,0,0.396c-1.683,0.974-2.613,1.854-3.182,3.974c-0.136,0-0.267,0-0.397,0
	c0-0.793,0-1.593,0-2.381c0.28-0.461,0.291-0.69,0.397-1.593c-0.267,0-0.533,0-0.799,0c0,0.132,0,0.264,0,0.397
	c-0.397,1.063-0.796,2.127-1.191,3.183c-0.278-0.378-0.147-0.156-0.401-0.791c-0.263-0.408-0.529-0.8-0.795-1.196
	c-0.135,0.131-0.266,0.267-0.401,0.396c-1.708,1.125-2.643,2.438-3.181,4.777c-1.548-1.321-2.048-1.436-4.777-1.595
	c-1.086,2.639-4.906,7.843-3.981,10.347c0.768,4.631,4.943,5.259,7.166,8.365c0.132,0,0.266,0,0.397,0
	c0.92-3.228,2.451-5.617,6.768-5.573c2.904-1.589,5.32,1.525,9.154,0.796c6.339-1.214,15.112-0.856,21.097,0.397
	c5.967,0.135,11.938,0.264,17.909,0.395c0.136-1.428-0.575-0.771,0.8-1.192c0.878,0.125,1.275,0.362,1.988-0.792
	c-2.176-3.922,1.509-8.673,0.396-13.137c-0.529-2.13-1.936-4.387-1.987-5.97c-2.142-0.745-3.109-2.974-5.573-3.588
	c-5.152-1.274-13.921,4.42-17.517,5.97c0-0.263,0-0.528,0-0.791c0.266-0.265,0.534-0.529,0.8-0.793c-0.664,0-1.332,0-1.99,0
	c-0.266,0.264-0.533,0.529-0.797,0.793c0-0.265,0-0.529,0-0.793c-0.92-1.336-0.607-1.571,0-2.786c-0.796,0-1.594,0-2.389,0
	c-0.559,0.508-1.265,0.832-1.988,1.186C106.191,79.723,106.191,79.324,106.191,78.931z M84.697,102.41c-0.664,0-1.328,0-1.99,0
	c0,0.264,0,0.529,0,0.797c-0.773,1.021-1.07,2.296-1.196,3.982c0.664,0.263,1.331,0.529,1.993,0.795
	C83.897,106.127,84.299,104.268,84.697,102.41z M114.944,102.811c0.832,0.547,2.755,0.536,3.581,0
	C117.335,102.811,116.139,102.811,114.944,102.811z M96.637,103.604c-0.132,0.4-0.267,0.799-0.399,1.199c0.267,0,0.532,0,0.797,0
	c0-0.136,0-0.271,0-0.4c0.274-0.375,0.146-0.16,0.4-0.799C97.168,103.604,96.903,103.604,96.637,103.604z M112.955,109.973
	c0-0.4,0-0.8,0-1.191c0.799,0,1.591,0,2.389,0c0-0.664,0-1.329,0-1.986c0.398-0.135,0.795-0.275,1.195-0.402
	c1.081-0.77,1.801-0.19,1.986-0.397c0.625-0.556,0.426-0.274,0.8-1.192c0.132-0.136,0.267-0.271,0.398-0.4c-0.132,0-0.267,0-0.398,0
	c-1.585,1.314-6.066-0.464-8.757-0.799c0,0.264,0,0.535,0,0.799c1.363,0.992,1.946,2.457,2.387,4.379
	c-1.094-0.036-0.506-0.301-0.793,0.791c1.097,0.7,2.691,1.824,4.377,0.801C115.344,110.244,114.148,110.102,112.955,109.973z
	 M141.217,104.402c0.053,1.683,0.311,2.128,0.797,3.186c0.131,0,0.263,0,0.398,0c0-0.928,0-1.855,0-2.785
	C142.014,104.667,141.612,104.531,141.217,104.402z M126.092,111.166c-1.405-0.383-2.03-0.986-3.186-1.594
	c0.133,0.4,0.266,0.801,0.398,1.197c-1.457,0.396-2.918,0.795-4.381,1.195c0,0.264,0,0.529,0,0.793
	c0.934,0.264,1.861,0.535,2.789,0.8c-0.448,1.267-0.59,1.868-1.196,2.784c-0.261-0.271-0.525-0.535-0.793-0.799
	c0,0.264,0,0.528,0,0.799c4.021,2.485,0.134,3.129,1.989,6.367c2.383,4.174,13.063,1.738,14.331-1.589
	c0.886-1.007,1.13-2.087,1.192-3.985c-0.268,0-0.531,0-0.796,0c-2.144,1.239-7.979-0.189-10.747-0.396
	c-0.398-0.397-0.801-0.797-1.192-1.196c0.132-0.397,0.262-0.793,0.392-1.192c0.139-0.137,0.269-0.265,0.402-0.397L126.092,111.166z
	 M90.667,123.504c0.606,0.521,1.695,0.736,2.391,1.193c8.013,0.15,11.407-0.493,14.725-4.77c0.222-0.472,0.073-0.867-0.398-1.597
	C104.012,124.055,99.225,123.962,90.667,123.504z M117.335,121.12c0,0.132,0,0.263,0,0.396c0.266,0,0.532,0,0.796,0
	c-0.357-1.311-0.693-2.045-1.592-2.793C116.701,119.881,116.817,120.42,117.335,121.12z M121.713,129.874
	c-0.252,0.644-0.12,0.421-0.398,0.8c-2.344,0.973-6.281,1.568-8.759,3.578c-0.261,0-0.532,0-0.791,0
	c2.503,2.242,10.054,2.842,12.736,0.4c0.257-0.733-2.308-7.355-3.187-8.756c-0.094-2.434-0.947-3.377-2.789-3.984
	C119.14,124.565,119.964,128.26,121.713,129.874z M133.256,124.697c-1.213,0.693-3.583,0.479-4.778,1.199
	c1.595,0.261,3.185,0.529,4.778,0.793c0.395-0.764,0.568-1.076,1.192-1.592c0-0.137,0-0.268,0-0.4
	C134.053,124.697,133.651,124.697,133.256,124.697z M106.191,133.456c0.926,0,1.855,0,2.783,0c0-0.132,0-0.265,0-0.397
	c-1.043-0.428-1.684-0.707-3.186-0.799C105.928,132.663,106.055,133.059,106.191,133.456z M104.598,145.004
	c-0.566-0.352-1.304-0.391-2.389-0.398C102.773,144.949,103.514,144.99,104.598,145.004z M101.414,145.398
	c-0.566-0.35-1.303-0.385-2.386-0.395C99.59,145.354,100.327,145.393,101.414,145.398z M94.249,163.309c0.266,0,0.532,0,0.798,0
	c0-0.133,0-0.266,0-0.396c-2.467-1.361-4.194-3.432-7.166-4.378C89.481,160.888,92.145,161.484,94.249,163.309z M68.776,163.708
	c0-0.14,0-0.271,0-0.399c-1.196-0.833-1.672-1.828-3.186-2.386C66.379,162.108,67.3,163.187,68.776,163.708z M95.046,163.309
	 M97.833,164.9"/>
</svg>
