<?xml version="1.0" encoding="utf-8"?>
<!-- Generator: Adobe Illustrator 15.0.2, SVG Export Plug-In . SVG Version: 6.00 Build 0)  -->
<!DOCTYPE svg PUBLIC "-//W3C//DTD SVG 1.1//EN" "http://www.w3.org/Graphics/SVG/1.1/DTD/svg11.dtd">
<svg version="1.1" id="Ebene_1" xmlns="http://www.w3.org/2000/svg" xmlns:xlink="http://www.w3.org/1999/xlink" x="0px" y="0px"
	 width="200px" height="200px" viewBox="0 0 200 200" enable-background="new 0 0 200 200" xml:space="preserve">
<path id="gefaelltmir" d="M10,71.481c0-4.37,3.542-7.912,7.911-7.912h54.26c4.37,0,7.913,3.542,7.913,7.912
	c0,4.371-3.543,7.913-7.913,7.913h-54.26C13.542,79.394,10,75.852,10,71.481z M17.911,96.578h56.973
	c4.371,0,7.914-3.543,7.914-7.913s-3.543-7.914-7.914-7.914H17.911c-4.369,0-7.911,3.543-7.911,7.914S13.542,96.578,17.911,96.578z
	 M18.816,97.934c-4.369,0-7.912,3.542-7.912,7.912c0,4.371,3.543,7.914,7.912,7.914h52.451c4.37,0,7.912-3.543,7.912-7.914
	c0-4.37-3.542-7.912-7.912-7.912H18.816z M78.275,123.028c0-4.37-3.543-7.913-7.913-7.913H18.816c-4.369,0-7.912,3.543-7.912,7.913
	s3.543,7.913,7.912,7.913h51.546C74.732,130.941,78.275,127.398,78.275,123.028z M47.228,21.343C47.228,15.078,42.148,10,35.887,10
	c-6.267,0-11.345,5.078-11.345,11.343v39.99h22.686V21.343z M107.442,155.231l25.71-36.36l-25.71-58.644l-25.709,58.706
	L107.442,155.231z M184.784,128.717h-10.95c-2.75,0-4.976,1.918-4.976,4.281v36.537c0,2.365,2.226,4.281,4.976,4.281h10.95
	c2.748,0,4.978-1.916,4.978-4.281v-36.537C189.762,130.635,187.532,128.717,184.784,128.717z M179.389,118.936
	c0-24.139-12.529-45.429-31.597-58.035v99.287H67.093v-21.87H38.288c4.485,15.204,14.105,28.29,26.92,37.36h84.47
	c6.682-4.729,12.49-10.551,17.161-17.191v-31.754h12.103C179.231,124.172,179.389,121.572,179.389,118.936z M123.059,181.862
	c-3.254,0-5.89,2.637-5.89,5.888v2.175h11.776v-2.175C128.945,184.499,126.31,181.862,123.059,181.862z M91.828,181.862
	c-3.251,0-5.888,2.637-5.888,5.888v2.175h11.774v-2.175C97.715,184.499,95.08,181.862,91.828,181.862z M77.217,19.439h-3.264
	c-2.892,4.001-4.691,6.192-4.691,10.848h7.955V19.439z M140.933,19.439h-3.266v10.848h7.957
	C145.624,25.631,143.825,23.44,140.933,19.439z M115.301,47.62H99.583v3.423h15.718V47.62z M119.705,36.954
	c1.484,0,2.689-1.204,2.689-2.688h5.29V30.84h-15.72v3.426h5.051C117.016,35.75,118.221,36.954,119.705,36.954z M94.943,36.954
	c1.486,0,2.69-1.204,2.69-2.688h5.288V30.84H87.203v3.426h5.052C92.255,35.75,93.459,36.954,94.943,36.954z"/>
</svg>
