<?xml version="1.0" encoding="utf-8"?>
<!-- Generator: Adobe Illustrator 15.0.2, SVG Export Plug-In . SVG Version: 6.00 Build 0)  -->
<!DOCTYPE svg PUBLIC "-//W3C//DTD SVG 1.1//EN" "http://www.w3.org/Graphics/SVG/1.1/DTD/svg11.dtd">
<svg version="1.1" id="Ebene_1" xmlns="http://www.w3.org/2000/svg" xmlns:xlink="http://www.w3.org/1999/xlink" x="0px" y="0px"
	 width="200px" height="200px" viewBox="0 0 200 200" enable-background="new 0 0 200 200" xml:space="preserve">
<path id="mrBusinessBoard2" d="M95.685,137.749l-24.186-34.146l24.186-55.23l24.188,55.171L95.685,137.749z M168.447,112.807
	h-10.303c-2.586,0-4.682,1.803-4.682,4.028v34.372c0,2.226,2.096,4.027,4.682,4.027h10.303c2.586,0,4.683-1.802,4.683-4.027v-34.372
	C173.13,114.609,171.033,112.807,168.447,112.807z M163.37,103.604c0-22.709-11.786-42.738-29.725-54.598v93.408h-75.92V49.007
	C39.787,60.867,28,80.895,28,103.604c0,21.952,11.015,41.396,27.952,53.38h79.468c6.285-4.446,11.75-9.923,16.146-16.171v-29.874
	h11.383C163.223,108.529,163.37,106.085,163.37,103.604z M110.377,162.805c-3.061,0-5.539,2.479-5.539,5.539v2.046h11.076v-2.046
	C115.914,165.284,113.436,162.805,110.377,162.805z M80.995,162.805c-3.059,0-5.538,2.479-5.538,5.539v2.046h11.077v-2.046
	C86.534,165.284,84.054,162.805,80.995,162.805z M67.251,10h-3.073c-2.72,3.765-4.413,5.825-4.413,10.205h7.485V10z M127.191,10
	h-3.071v10.205h7.483C131.604,15.825,129.913,13.765,127.191,10z M88.292,39.732h14.788v-3.221H88.292V39.732z M107.221,26.478
	c1.396,0,2.531-1.133,2.531-2.528h4.975v-3.225H99.938v3.225h4.753C104.691,25.345,105.824,26.478,107.221,26.478z M83.927,26.478
	c1.397,0,2.531-1.133,2.531-2.528h4.975v-3.225H76.645v3.225h4.753C81.398,25.345,82.531,26.478,83.927,26.478z M124.861,175.813
	H66.511c-6.191,0-6.191,0-16.11-6.158l-1.913,3.082c10.392,6.452,10.797,6.707,18.023,6.707h58.351
	c7.227,0,7.633-0.255,18.023-6.707l-1.914-3.081C131.053,175.813,131.053,175.813,124.861,175.813z M120.832,181.063
	c-2.558,0-4.627,2.07-4.627,4.625c0,2.556,2.069,4.627,4.627,4.627c2.555,0,4.627-2.071,4.627-4.627
	C125.459,183.134,123.387,181.063,120.832,181.063z M69.647,181.063c-2.555,0-4.627,2.07-4.627,4.625
	c0,2.556,2.072,4.627,4.627,4.627c2.556,0,4.626-2.071,4.626-4.627C74.273,183.134,72.203,181.063,69.647,181.063z"/>
</svg>
