<?xml version="1.0" encoding="utf-8"?>
<!-- Generator: Adobe Illustrator 15.0.2, SVG Export Plug-In . SVG Version: 6.00 Build 0)  -->
<!DOCTYPE svg PUBLIC "-//W3C//DTD SVG 1.1//EN" "http://www.w3.org/Graphics/SVG/1.1/DTD/svg11.dtd">
<svg version="1.1" id="Ebene_1" xmlns="http://www.w3.org/2000/svg" xmlns:xlink="http://www.w3.org/1999/xlink" x="0px" y="0px"
	 width="200px" height="200px" viewBox="0 0 200 200" enable-background="new 0 0 200 200" xml:space="preserve">
<g id="Ebene_3">
	<g>
		<polygon points="116.824,113.018 90.186,52.258 88.645,55.777 88.645,148.514 90.186,150.689 		"/>
		<path d="M102.891,28.146c1.539,0,2.787-1.248,2.787-2.786h5.479v-3.55H94.872v3.55h5.232
			C100.104,26.898,101.352,28.146,102.891,28.146z"/>
		<path d="M124.883,9.999h-3.381v11.239h8.24C129.742,16.414,127.881,14.146,124.883,9.999z"/>
		<circle cx="171.855" cy="136.082" r="3.291"/>
		<rect x="88.645" y="39.195" width="9.686" height="3.549"/>
		<path d="M166.83,134.436c-1.303-4.973-1.551-5.207-7.865-11.191l-1.773,1.872c6.025,5.713,6.025,5.713,7.146,9.974l10.522,40.15
			c1.117,4.261,1.117,4.261-1.332,12.195l2.466,0.763c2.565-8.315,2.666-8.642,1.362-13.613L166.83,134.436z"/>
		<circle cx="181.088" cy="171.301" r="3.291"/>
		<path d="M106.363,181.389c-3.369,0-6.099,2.73-6.099,6.101v2.254h12.201v-2.254C112.465,184.119,109.732,181.389,106.363,181.389z
			"/>
		<path d="M164.727,113.084c0-25.01-12.979-47.066-32.735-60.127v102.867H88.645v16.047h45.3
			c6.92-4.896,12.941-10.928,17.779-17.809v-32.901h12.537C164.563,118.51,164.727,115.816,164.727,113.084z"/>
	</g>
</g>
</svg>
