<?xml version="1.0" encoding="utf-8"?>
<!-- Generator: Adobe Illustrator 15.0.2, SVG Export Plug-In . SVG Version: 6.00 Build 0)  -->
<!DOCTYPE svg PUBLIC "-//W3C//DTD SVG 1.1//EN" "http://www.w3.org/Graphics/SVG/1.1/DTD/svg11.dtd">
<svg version="1.1" id="Ebene_2" xmlns="http://www.w3.org/2000/svg" xmlns:xlink="http://www.w3.org/1999/xlink" x="0px" y="0px"
	 width="200px" height="200px" viewBox="0 0 200 200" enable-background="new 0 0 200 200" xml:space="preserve">
<g>
	<path d="M77.236,28.146c1.539,0,2.787-1.248,2.787-2.786h5.479v-3.55H69.217v3.55h5.234C74.451,26.898,75.697,28.146,77.236,28.146
		z"/>
	<rect x="82.043" y="39.195" width="6.602" height="3.549"/>
	<polygon points="88.645,55.777 63.549,113.082 88.645,148.514 	"/>
	<path d="M88.645,155.824H48.381V52.957c-19.756,13.061-32.736,35.117-32.736,60.127c0,24.177,12.131,45.589,30.783,58.787h42.216
		V155.824z"/>
	<path d="M58.871,9.999h-3.385c-2.994,4.146-4.859,6.415-4.859,11.239h8.244V9.999z"/>
	<path d="M74.008,181.388c-3.369,0-6.1,2.731-6.1,6.101v2.254h12.199v-2.254C80.107,184.119,77.375,181.388,74.008,181.388z"/>
</g>
</svg>
