<?xml version="1.0" encoding="utf-8"?>
<!-- Generator: Adobe Illustrator 15.0.2, SVG Export Plug-In . SVG Version: 6.00 Build 0)  -->
<!DOCTYPE svg PUBLIC "-//W3C//DTD SVG 1.1//EN" "http://www.w3.org/Graphics/SVG/1.1/DTD/svg11.dtd">
<svg version="1.1" id="Ebene_1" xmlns="http://www.w3.org/2000/svg" xmlns:xlink="http://www.w3.org/1999/xlink" x="0px" y="0px"
	 width="200px" height="200px" viewBox="0 0 200 200" enable-background="new 0 0 200 200" xml:space="preserve">
<path id="mrBusinessBoard1" d="M90.543,150.823l-26.638-37.607l26.638-60.824l26.639,60.758L90.543,150.823z M165.083,113.218
	c0-25.01-12.979-47.066-32.735-60.127v102.868h-83.61V53.091c-19.756,13.061-32.736,35.117-32.736,60.127
	c0,24.177,12.132,45.589,30.784,58.787h87.517c6.921-4.896,12.942-10.928,17.779-17.81v-32.9h12.538
	C164.92,118.643,165.083,115.949,165.083,113.218z M106.721,181.521c-3.369,0-6.1,2.731-6.1,6.101v2.254h12.2v-2.254
	C112.821,184.253,110.09,181.521,106.721,181.521z M74.365,181.521c-3.369,0-6.101,2.731-6.101,6.101v2.254h12.199v-2.254
	C80.464,184.253,77.732,181.521,74.365,181.521z M59.228,10.133h-3.384c-2.994,4.146-4.859,6.415-4.859,11.239h8.243V10.133z
	 M125.24,10.133h-3.382v11.239h8.241C130.1,16.548,128.238,14.279,125.24,10.133z M82.399,42.878h16.287V39.33H82.399V42.878z
	 M103.247,28.28c1.539,0,2.787-1.247,2.787-2.786h5.479v-3.55H95.228v3.55h5.233C100.461,27.033,101.708,28.28,103.247,28.28z
	 M77.594,28.28c1.539,0,2.787-1.247,2.787-2.786h5.479v-3.55H69.574v3.55h5.233C74.808,27.033,76.055,28.28,77.594,28.28z
	 M167.187,134.568c-1.303-4.972-1.55-5.205-7.864-11.191l-1.774,1.872c6.026,5.714,6.026,5.714,7.145,9.974l10.524,40.15
	c1.116,4.261,1.116,4.261-1.333,12.196l2.465,0.762c2.567-8.315,2.667-8.642,1.364-13.613L167.187,134.568z M173.048,139.399
	c1.758-0.462,2.809-2.261,2.348-4.019s-2.26-2.811-4.018-2.35s-2.811,2.26-2.35,4.02
	C169.49,138.809,171.288,139.861,173.048,139.399z M184.628,170.601c-0.461-1.759-2.26-2.812-4.019-2.351
	c-1.757,0.463-2.809,2.262-2.349,4.02c0.461,1.758,2.261,2.811,4.018,2.35C184.037,174.157,185.09,172.357,184.628,170.601z"/>
</svg>
