<?xml version="1.0" encoding="utf-8"?>
<!-- Generator: Adobe Illustrator 15.0.2, SVG Export Plug-In . SVG Version: 6.00 Build 0)  -->
<!DOCTYPE svg PUBLIC "-//W3C//DTD SVG 1.1//EN" "http://www.w3.org/Graphics/SVG/1.1/DTD/svg11.dtd">
<svg version="1.1" id="Ebene_1" xmlns="http://www.w3.org/2000/svg" xmlns:xlink="http://www.w3.org/1999/xlink" x="0px" y="0px"
	 width="200px" height="200px" viewBox="0 0 200 200" enable-background="new 0 0 200 200" xml:space="preserve">
<path id="müsli" d="M22.815,138.642c0,0-1.147-5.897,0.983-8.026c2.129-2.13,7.271-6.652,7.271-6.652l3.211-8.91l13.27-20.151
	l17.366-8.682l11.958-1.801c0,0,8.355-8.847,12.04-10.731c3.686-1.885,16.138-5.325,16.138-5.325l16.709-9.337
	c0,0,17.693-4.915,25.228-3.767c7.536,1.145,21.134,11.304,21.134,11.304c3.056,2.042,11.138,11.794,14.578,18.346
	c3.44,6.554,8.357,19.167,7.373,27.684c-0.983,8.515-5.897,21.298-8.847,24.247c-2.948,2.949-30.634,5.734-30.634,5.734
	s-4.258,3.277-7.535,4.096s-21.951-1.476-37.516-4.751c-15.563-3.277-23.753-2.95-30.471-2.95c-6.716,0-12.877,2.852-12.877,2.852
	l-12.186,9.601v-12.286c0,0-9.504-3.278-11.305-3.278L22.815,138.642z M40.563,132.479c1.75,0,12.283,3.664,12.283,3.664l1.188,6.98
	l8.473-6.417c0,0,6.837-2.192,13.357-2.192c6.52,0,14.47-0.594,29.577,2.505c15.106,3.097,32.136,5.937,35.315,5.161
	c3.181-0.775,7.162-8.207,7.162-8.207s23.799-1.942,26.66-4.731c2.861-2.788,4.653-8.831,5.604-16.884
	c0.955-8.053,0.689-17.414-2.649-23.61c-3.341-6.196-10.955-15.559-13.92-17.49c0,0-7.593-5.471-14.908-8.394
	c-6.866-2.745-25.042,1.249-25.042,1.249l-17.153,9.491c0,0-10.619,3.176-14.196,4.957c-3.578,1.781-11.946,9.911-11.946,9.911
	l-12.812,0.5L50.7,97.181l-12.88,19.053l-2.256,7.742c0,0-4.978,3.408-7.044,5.424c-2.067,2.014-1.965,6.172-1.965,6.172
	L40.563,132.479z M10.004,68.824c-0.2,7.552,9.244,10.406,9.244,10.406s9.422-5.659,8.129-12.517
	c-1.805-9.579-8.785-0.543-8.992,1.827C17.668,64.742,10.268,58.708,10.004,68.824z M48.518,53.881
	c-1.304,1.983,3.09,9.114,3.09,9.114s8.543-3.322,8.543-5.787c0-5.369-5.447-2.706-6.219-1.252
	C54.497,53.343,51.765,48.943,48.518,53.881z"/>
</svg>
