<?xml version="1.0" encoding="utf-8"?>
<!-- Generator: Adobe Illustrator 15.0.2, SVG Export Plug-In . SVG Version: 6.00 Build 0)  -->
<!DOCTYPE svg PUBLIC "-//W3C//DTD SVG 1.1//EN" "http://www.w3.org/Graphics/SVG/1.1/DTD/svg11.dtd">
<svg version="1.1" id="Ebene_1" xmlns="http://www.w3.org/2000/svg" xmlns:xlink="http://www.w3.org/1999/xlink" x="0px" y="0px"
	 width="200px" height="200px" viewBox="0 0 200 200" enable-background="new 0 0 200 200" xml:space="preserve">
<path d="M157.514,25.084c-2.692-2.693-2.692-7.057,0.001-9.75c2.689-2.69,7.054-2.69,9.747,0.002l20.705,20.707
	c2.692,2.693,2.692,7.057,0.004,9.746c-2.694,2.693-7.057,2.693-9.752,0.001L157.514,25.084z M188.843,101.42
	c0,41.982-28.937,77.188-67.948,86.809c0.018-0.203,0.063-0.398,0.063-0.606c0-3.804-3.087-6.89-6.896-6.89H84.78
	c-3.809,0-6.895,3.086-6.895,6.89c0,0.208,0.042,0.405,0.061,0.607C38.935,178.611,10,143.403,10,101.42
	C10,52.037,50.033,12,99.418,12C148.807,12,188.843,52.037,188.843,101.42z M65.924,100.159c0-10.97-8.894-19.863-19.864-19.863
	c-10.971,0-19.863,8.894-19.863,19.863c0,10.97,8.892,19.863,19.863,19.863C57.03,120.021,65.924,111.129,65.924,100.159z
	 M119.287,48.464c0-10.972-8.895-19.866-19.869-19.866c-10.97,0-19.862,8.894-19.862,19.866c0,10.969,8.892,19.863,19.862,19.863
	C110.393,68.327,119.287,59.433,119.287,48.464z M152.881,80.295c-10.974,0-19.865,8.894-19.865,19.863
	c0,10.97,8.892,19.863,19.865,19.863c10.967,0,19.861-8.893,19.861-19.863C172.742,89.189,163.848,80.295,152.881,80.295z"/>
</svg>
