<?xml version="1.0" encoding="utf-8"?>
<!-- Generator: Adobe Illustrator 15.0.2, SVG Export Plug-In . SVG Version: 6.00 Build 0)  -->
<!DOCTYPE svg PUBLIC "-//W3C//DTD SVG 1.1//EN" "http://www.w3.org/Graphics/SVG/1.1/DTD/svg11.dtd">
<svg version="1.1" id="Ebene_1" xmlns="http://www.w3.org/2000/svg" xmlns:xlink="http://www.w3.org/1999/xlink" x="0px" y="0px"
	 width="200px" height="200px" viewBox="0 0 200 200" enable-background="new 0 0 200 200" xml:space="preserve">
<path id="mobiHappy" d="M139.938,10H60.951c-6.764,0-12.249,5.484-12.249,12.25v137.698c0,6.764,5.484,12.248,12.249,12.248h78.987
	c6.768,0,12.25-5.484,12.25-12.248V22.25C152.188,15.484,146.705,10,139.938,10z M89.143,153.088
	c-2.282-1.914-5.173-2.824-8.14-2.564c-2.969,0.26-5.657,1.658-7.571,3.939l-3.634-3.051c2.816-3.357,6.736-5.254,10.792-5.61
	c4.054-0.354,8.245,0.834,11.603,3.652L89.143,153.088z M127.457,154.463c-1.914-2.281-4.603-3.68-7.57-3.939
	c-2.967-0.26-5.857,0.65-8.141,2.564l-3.049-3.634c3.356-2.818,7.547-4.007,11.602-3.652c4.056,0.356,7.977,2.253,10.793,5.61
	L127.457,154.463z M140.904,130.725H59.985V22.08h80.919V130.725z M85.234,180.888v4.105c0,3-2.432,5.432-5.432,5.432H77.63
	c-3,0-5.433-2.432-5.433-5.432v-4.105c0-2.999,2.433-5.432,5.433-5.432h2.172C82.803,175.456,85.234,177.889,85.234,180.888z
	 M45.038,143.641v12.313c0,2.998-2.432,5.432-5.432,5.432h-2.173c-3,0-5.432-2.434-5.432-5.432v-12.313
	c0-3.001,2.432-5.433,5.432-5.433h2.173C42.605,138.208,45.038,140.64,45.038,143.641z M168.891,143.641v12.313
	c0,2.998-2.432,5.432-5.432,5.432h-2.174c-3,0-5.432-2.434-5.432-5.432v-12.313c0-3.001,2.432-5.433,5.432-5.433h2.174
	C166.459,138.208,168.891,140.64,168.891,143.641z M128.691,180.888v4.105c0,3-2.432,5.432-5.432,5.432h-2.173
	c-2.999,0-5.433-2.432-5.433-5.432v-4.105c0-2.999,2.434-5.432,5.433-5.432h2.173C126.26,175.456,128.691,177.889,128.691,180.888z"
	/>
</svg>
