<?xml version="1.0" encoding="utf-8"?>
<!-- Generator: Adobe Illustrator 15.0.2, SVG Export Plug-In . SVG Version: 6.00 Build 0)  -->
<!DOCTYPE svg PUBLIC "-//W3C//DTD SVG 1.1//EN" "http://www.w3.org/Graphics/SVG/1.1/DTD/svg11.dtd">
<svg version="1.1" id="Ebene_1" xmlns="http://www.w3.org/2000/svg" xmlns:xlink="http://www.w3.org/1999/xlink" x="0px" y="0px"
	 width="200px" height="200px" viewBox="0 0 200 200" enable-background="new 0 0 200 200" xml:space="preserve">
<path id="mobiNormal" d="M45.052,142.788v12.327c0,3.002-2.435,5.438-5.438,5.438h-2.175c-3.004,0-5.438-2.436-5.438-5.438v-12.327
	c0-3.004,2.435-5.438,5.438-5.438h2.175C42.617,137.35,45.052,139.784,45.052,142.788z M163.604,137.35h-2.176
	c-3.003,0-5.438,2.435-5.438,5.438v12.327c0,3.002,2.435,5.438,5.438,5.438h2.176c3.004,0,5.438-2.436,5.438-5.438v-12.327
	C169.041,139.784,166.607,137.35,163.604,137.35z M79.854,174.64H77.68c-3.002,0-5.438,2.435-5.438,5.437v4.109
	c0,3.004,2.436,5.438,5.438,5.438h2.175c3.004,0,5.438-2.435,5.438-5.438v-4.109C85.293,177.074,82.859,174.64,79.854,174.64z
	 M123.36,174.64h-2.175c-3.003,0-5.438,2.435-5.438,5.437v4.109c0,3.004,2.436,5.438,5.438,5.438h2.175
	c3.004,0,5.438-2.435,5.438-5.438v-4.109C128.799,177.074,126.364,174.64,123.36,174.64z M152.32,21.263v137.852
	c0,6.771-5.488,12.263-12.264,12.263H60.982c-6.772,0-12.262-5.492-12.262-12.263V21.263C48.72,14.491,54.21,9,60.982,9h79.074
	C146.832,9,152.32,14.491,152.32,21.263z M85.053,148.709c0-3.471-2.814-6.285-6.285-6.285c-3.47,0-6.285,2.814-6.285,6.285
	s2.815,6.284,6.285,6.284C82.239,154.993,85.053,152.18,85.053,148.709z M128.559,148.709c0-3.471-2.813-6.285-6.285-6.285
	c-3.469,0-6.285,2.814-6.285,6.285s2.816,6.284,6.285,6.284C125.745,154.993,128.559,152.18,128.559,148.709z M141.025,21.094
	H60.017v108.764h81.009V21.094z"/>
</svg>
