<?xml version="1.0" encoding="utf-8"?>
<!-- Generator: Adobe Illustrator 15.0.2, SVG Export Plug-In . SVG Version: 6.00 Build 0)  -->
<!DOCTYPE svg PUBLIC "-//W3C//DTD SVG 1.1//EN" "http://www.w3.org/Graphics/SVG/1.1/DTD/svg11.dtd">
<svg version="1.1" id="Ebene_1" xmlns="http://www.w3.org/2000/svg" xmlns:xlink="http://www.w3.org/1999/xlink" x="0px" y="0px"
	 width="200px" height="200px" viewBox="0 0 200 200" enable-background="new 0 0 200 200" xml:space="preserve">
<path id="typp" d="M39.87,56.964c6.287,0,9.874,8.133,1.623,7.854C36.932,64.667,34.989,57.272,39.87,56.964z M142.059,75.841
	c12.173,0.408,10.276-14.753,1.005-14.753C135.867,61.541,135.327,75.614,142.059,75.841z M189.845,129.125
	c-0.02,4.893-1.909,11.494-10.797,15.162c-3.574,1.476-7.112,2.223-10.517,2.223c-9.086,0-15.84-5.09-20.725-10.744
	c2.521,14.209,3.459,31.926-5.853,37.403c-3.566,2.098-7.939,3.161-12.999,3.161c-0.002,0-0.003,0-0.005,0
	c-12.896,0-27.843-6.945-33.774-15.086c-2.801,1.818-7.063,2.818-12.188,2.818l0,0c-10.096,0-23.436-3.918-28.866-12.519
	c-2.897-4.588-1.567-10.563,1.506-16.511c-5.418,2.802-10.875,4.564-15.855,4.564c-5.284,0-9.631-1.92-12.914-5.705
	c-3.681-4.243-5.316-9.057-4.859-14.309c0.349-4.018,1.896-7.963,4.13-11.725c-12.283-8.675-15.899-16.823-16.118-23.186
	c-0.276-7.976,5.149-14.905,9.671-19.266c-0.02,0.126-0.023,0.244-0.04,0.369c0.523-3.741,1.877-7.915,4.503-12.51
	c5.776-10.106,15.439-27.023,34.51-28.717c1.747-0.155,3.34-0.23,4.873-0.23c10.502,0,17.695,3.759,23.014,12.689
	c5.039-0.717,10.018-1.155,14.78-1.198c7.947-6.003,19.462-10.167,34.516-12.441c1.622-0.245,3.242-0.369,4.818-0.369
	c28.008,0,38.787,37.078,40.354,50.067c0.636,5.259-1.997,12.146-7.128,18.979c0.436,3.127,0.678,6.257,0.503,9.312
	C181.853,107.443,189.885,118.982,189.845,129.125z M94.243,61.548c-0.438,19.653,11.565,32.599,21.712,39.997
	c5.732,4.179,11.967,6.298,18.525,6.299c0.001,0,0.002,0,0.002,0c10.964,0,22.885-6.064,31.893-16.225
	c5.651-6.374,9.103-13.537,8.585-17.821c-1.761-14.586-12.463-44.704-34.305-44.704c-1.272,0-2.588,0.102-3.908,0.3
	C108.533,33.654,94.632,44.173,94.243,61.548z M89.319,42.53c0.699,1.629,1.361,3.38,1.993,5.258c0.987-2.067,2.18-4.03,3.643-5.856
	C93.1,42.074,91.216,42.288,89.319,42.53z M27.872,78.499c4.695,8.092,15.476,12.928,23.186,12.928c0,0,0,0,0.001,0
	c1.107,0,2.11-0.105,2.979-0.309c8.921-2.099,24.553-9.159,31.05-20.01c2.934-4.898,3.688-10.134,2.238-15.563
	c-5.645-21.167-12.719-25.181-23.799-25.181c-1.334,0-2.793,0.069-4.338,0.206c-15.923,1.415-24.605,16.615-29.795,25.696
	C24.646,64.577,24.135,72.056,27.872,78.499z M19.462,67.462c-0.009,0.117-0.023,0.238-0.03,0.355
	C19.438,67.7,19.453,67.579,19.462,67.462z M61.179,124.617c-12.938-4.505-22.768-9.077-30.153-13.555
	c-1.757,2.994-2.956,6.041-3.215,9.026c-0.32,3.669,0.811,6.935,3.455,9.981c2.155,2.485,4.938,3.693,8.507,3.693
	C46.103,133.764,53.904,129.895,61.179,124.617z M95.363,133.165c-8.635-1.119-17.616-3.179-27.122-6.196
	c-6.786,8.329-11.854,17.238-9.188,21.461c4.063,6.433,15.116,9.799,23.936,9.799c3.944,0,7.658-1.569,9.487-2.865
	C90.616,148.412,92.286,141.725,95.363,133.165z M140.689,129.918c-8.49,2.413-18.264,4.262-29.957,4.262
	c-3.094,0-6.223-0.142-9.39-0.398c-3.411,9.264-5.099,15.55-2.646,21.928c2.509,6.518,17.256,14.787,30.255,14.789
	c0,0,0.001,0,0.003,0c4.004,0,7.383-0.793,10.041-2.356C145.844,164.113,144.199,145.621,140.689,129.918z M151.299,120.285
	c14.195-5.167,17.572-12.915,17.299-22.146c-9.844,9.941-22.383,15.799-34.115,15.799c0,0-0.001,0-0.003,0
	c-7.874,0-15.316-2.513-22.113-7.467c-8.814-6.427-18.872-16.661-22.663-31.393c-8.299,12.876-25.931,19.963-34.28,21.926
	c-1.322,0.311-2.792,0.469-4.364,0.469c-0.001,0-0.001,0-0.003,0c-9.29,0-22.406-5.587-28.413-15.938
	c-1.187-2.047-2.254-4.579-2.827-7.55c-2.302,3.062-4.106,6.697-3.977,10.489c0.207,5.962,5.854,21.484,53.749,36.81
	c14.855,4.752,28.313,7.064,41.145,7.064C127.722,128.348,140.579,124.186,151.299,120.285z M184.011,129.102
	c0.028-7.072-5.289-15.607-10.802-21.037c-2.225,7.041-7.841,13.307-19.916,17.702c-1.474,0.536-2.988,1.077-4.545,1.61
	c4.246,6.205,10.748,13.301,19.783,13.301c2.637,0,5.426-0.6,8.289-1.781C181.642,136.906,183.993,133.703,184.011,129.102z"/>
</svg>
