<?xml version="1.0" encoding="utf-8"?>
<!-- Generator: Adobe Illustrator 15.0.2, SVG Export Plug-In . SVG Version: 6.00 Build 0)  -->
<!DOCTYPE svg PUBLIC "-//W3C//DTD SVG 1.1//EN" "http://www.w3.org/Graphics/SVG/1.1/DTD/svg11.dtd">
<svg version="1.1" id="Ebene_1" xmlns="http://www.w3.org/2000/svg" xmlns:xlink="http://www.w3.org/1999/xlink" x="0px" y="0px"
	 width="200px" height="200px" viewBox="0 0 200 200" enable-background="new 0 0 200 200" xml:space="preserve">
<path id="zzz" d="M179.889,14H20.201c-5.623,0-10.2,4.576-10.2,10.201v117.4c0,5.625,4.577,10.199,10.2,10.199h17.961
	l-16.228,25.503c-1.173,1.843-1.002,4.232,0.418,5.889c0.965,1.128,2.352,1.733,3.769,1.733c0.67,0,1.348-0.135,1.988-0.416
	l74.679-32.709h77.101c5.626,0,10.202-4.574,10.202-10.199v-117.4C190.091,18.576,185.515,14,179.889,14z M180.172,141.602
	c0,0.153-0.127,0.281-0.283,0.281h-78.138c-0.686,0-1.364,0.142-1.991,0.416l-60.715,26.592l12.335-19.386
	c0.972-1.526,1.036-3.463,0.164-5.05c-0.872-1.586-2.539-2.572-4.348-2.572H20.201c-0.155,0-0.281-0.128-0.281-0.281v-117.4
	c0-0.156,0.126-0.282,0.281-0.282h159.688c0.156,0,0.283,0.126,0.283,0.282V141.602z M68.251,111.857l1.843,5.817l-20.555,6.517
	l-1.335-4.202l6.263-17.594l-10.289,3.263l-1.844-5.816l19.861-6.298l1.292,4.07l-6.243,17.734L68.251,111.857z M107.691,92.434
	l2.767,8.721l-30.834,9.779l-2-6.31l9.393-26.388L71.583,83.13l-2.766-8.724l29.792-9.447l1.938,6.105l-9.361,26.602L107.691,92.434
	z M160.302,79.203l3.688,11.63l-41.111,13.037l-2.668-8.41l12.525-35.185L112.157,66.8l-3.688-11.631l39.724-12.598l2.582,8.141
	l-12.482,35.47L160.302,79.203z"/>
</svg>
